PathFileType	4	(X/Y/Z)	..\data\2014051\dynamic\2014051_C4_04.trc
DataRate	CameraRate	NumFrames	NumMarkers	Units	OrigDataRate	OrigDataStartFrame	OrigNumFrames
100.000000	100.000000	4	44	mm	100.000000	74	199
Frame#	Time	L_IAS			L_IPS			R_IPS			R_IAS			L_FTC			L_FLE			L_FME			L_FAX			L_TTC			L_FAL			L_TAM			L_FCC			L_FM1			L_FM2			L_FM5			R_FTC			R_FLE			R_FME			R_FAX			R_TTC			R_FAL			R_TAM			R_FCC			R_FM1			R_FM2			R_FM5			CV7			TV10			SXS			SJN			L_SAE			L_HLE			L_HME			L_RSP			L_UHE			L_HM2			L_HM5			R_SAE			R_HLE			R_HME			R_RSP			R_UHE			R_HM2			R_HM5			
		X1	Y1	Z1	X2	Y2	Z2	X3	Y3	Z3	X4	Y4	Z4	X5	Y5	Z5	X6	Y6	Z6	X7	Y7	Z7	X8	Y8	Z8	X9	Y9	Z9	X10	Y10	Z10	X11	Y11	Z11	X12	Y12	Z12	X13	Y13	Z13	X14	Y14	Z14	X15	Y15	Z15	X16	Y16	Z16	X17	Y17	Z17	X18	Y18	Z18	X19	Y19	Z19	X20	Y20	Z20	X21	Y21	Z21	X22	Y22	Z22	X23	Y23	Z23	X24	Y24	Z24	X25	Y25	Z25	X26	Y26	Z26	X27	Y27	Z27	X28	Y28	Z28	X29	Y29	Z29	X30	Y30	Z30	X31	Y31	Z31	X32	Y32	Z32	X33	Y33	Z33	X34	Y34	Z34	X35	Y35	Z35	X36	Y36	Z36	X37	Y37	Z37	X38	Y38	Z38	X39	Y39	Z39	X40	Y40	Z40	X41	Y41	Z41	X42	Y42	Z42	X43	Y43	Z43	X44	Y44	Z44	

75	0.74	-432.5776672363282	1084.304321289063	157.0990905761718	-647.6997680664064	1091.375	244.2603454589843	-648.9410400390626	1092.19921875	312.5648803710938	-447.8482360839845	1077.076416015625	424.1347961425782	-487.8289184570314	963.5836181640627	90.77089691162105	-404.0581970214845	541.9608154296876	151.1036987304687	-411.731658935547	550.1680908203126	281.0994873046875	-408.728729248047	470.2793273925782	148.3194122314453	-351.0844116210938	468.571502685547	211.4592590332031	-335.3652343750001	65.5644989013672	198.4782409667969	-315.6809692382814	92.81234741210939	290.4075012207031	-376.1642150878907	21.07472229003907	257.8536987304688	-159.4770202636719	41.75292205810548	277.5036621093751	-164.5702209472657	47.60799407958985	218.7872924804688	-203.8147277832032	26.77642440795899	178.3249206542969	-540.0960083007815	953.178894042969	477.2796325683594	-640.5117187500001	531.2474365234376	403.0989379882813	-617.7236328125001	533.7807617187501	273.7308044433594	-694.2506713867189	481.4471740722657	400.9073791503907	-629.1868896484376	440.248260498047	342.0824279785156	-889.7456054687502	112.5180587768555	338.3042907714843	-834.8958740234377	121.7155685424805	254.3507232666015	-938.451110839844	89.06893157958986	268.0272827148437	-725.7718505859376	20.45748329162598	273.5582275390624	-733.0538330078126	34.56611633300782	333.1152038574218	-785.767028808594	23.42830657958985	374.6442871093749	-607.0674438476564	1617.489379882813	268.1405029296875	-645.9707031250001	1254.081665039063	284.4133911132812	-426.3880920410158	1342.365600585938	270.0453186035156	-479.4302062988283	1518.024536132813	260.7011413574219	-533.5272216796876	1539.307983398438	77.72548675537104	-605.2767333984376	1160.848022460938	-7.139312267303542	-635.0938720703126	1149.362182617188	76.32423400878901	-513.5558471679689	888.1928710937502	32.65911865234369	-561.8449096679689	890.4922485351565	-35.81262588500984	-491.0042419433595	776.4819946289065	27.58396148681635	-577.3694458007814	795.8116455078127	-40.07754135131844	-500.1821594238283	1533.287109375	463.3199157714844	-515.3446044921877	1174.475708007813	576.1351928710938	-566.2343750000002	1145.78173828125	494.1463317871094	-388.9117431640627	921.397399902344	509.8728637695313	-424.8852844238283	906.8493652343752	583.5080566406251	-325.2735290527345	821.906677246094	519.8819580078126	-422.0072631835939	807.7691040039065	577.3799438476564	
76	0.75	-420.2509155273439	1086.054809570313	156.3859710693359	-635.5587768554689	1092.743286132813	243.0513610839843	-636.9885253906251	1093.22802734375	311.3680725097656	-436.1433105468752	1078.274658203125	423.0977478027344	-475.4465942382814	965.2214355468752	89.87272644042964	-396.013397216797	542.4700317382814	150.2271118164062	-405.2339477539064	550.5996093750001	280.1536865234375	-401.3052673339845	470.7593078613282	147.4122314453125	-344.5951538085938	468.5137939453126	211.2846069335938	-333.2375183105469	65.45449829101564	198.5159149169922	-313.868865966797	92.27371978759767	290.6103210449219	-375.5180969238282	21.9268970489502	257.4967041015625	-158.0558319091797	37.97931671142579	278.3519592285157	-162.3654327392579	44.48601531982423	219.3089752197266	-202.3345947265626	24.66568183898926	178.1626434326172	-528.131774902344	953.9604492187502	476.2883911132813	-625.1276855468751	531.3131713867189	405.2207946777344	-602.0832519531251	532.9942016601564	275.5398254394531	-679.6732788085939	482.4502563476564	403.0507202148438	-615.0638427734376	439.6137084960939	344.7350463867188	-884.8797607421877	119.2368774414063	340.6587219238281	-829.7898559570315	126.9318618774414	256.9027404785156	-934.176208496094	98.80210113525393	270.1771240234374	-726.2834472656251	20.17779731750489	273.0341186523437	-733.0842285156251	34.05344772338868	332.7558898925781	-785.195007324219	23.97030830383301	374.4566650390624	-596.1915893554689	1618.539428710938	267.2886962890625	-634.5346679687501	1255.027099609375	283.3894653320312	-414.8884277343752	1343.897705078125	269.3585815429688	-468.3837280273439	1519.320678710938	260.0251159667969	-522.2376098632814	1540.574829101563	76.93296813964838	-593.3221435546876	1162.025512695313	-7.888168334961012	-623.4240112304689	1150.595458984375	75.48342132568354	-502.3791503906251	889.1777343750002	32.20066070556635	-550.3549804687501	891.587341308594	-36.51532745361335	-480.5943298339845	777.1691894531252	27.15538406372065	-566.1049804687501	796.9956054687502	-40.91955566406258	-489.734588623047	1534.4375	462.6990966796876	-505.4285888671877	1175.438110351563	574.7993774414062	-555.9902954101565	1146.933227539063	492.5289611816407	-379.2496032714845	922.0674438476565	509.0189208984376	-415.6005859375002	907.5609130859377	582.4690551757814	-315.8753051757814	822.4509277343752	519.3024291992189	-412.9288024902345	808.4820556640627	576.3029174804689	
77	0.76	-408.1389770507814	1087.991821289063	155.5293426513672	-623.5437011718751	1094.316040039063	241.9193878173828	-625.1321411132814	1094.474487304688	310.2577819824219	-424.4958496093752	1079.720458984375	421.8914794921876	-463.3509521484376	966.9794921875002	88.90959167480464	-388.2077026367189	543.1291503906251	149.2792053222656	-398.8089904785158	551.2589721679689	279.1059265136719	-394.141082763672	471.3877868652345	146.4470825195312	-338.3620605468751	468.6365966796876	210.9863891601563	-331.3008728027344	65.55461883544923	198.5250549316407	-312.2567443847657	92.01743316650392	290.7520446777344	-374.8375549316407	22.76952171325684	257.1288146972656	-156.8152465820313	34.92313766479493	279.0431823730469	-160.3546905517579	42.10845184326173	219.6552276611328	-200.9898071289063	23.2011833190918	177.8359222412109	-516.0224609375002	954.824890136719	475.2434692382813	-608.4654541015626	531.2408447265626	407.5309753417969	-585.2601928710939	532.0729980468751	277.5904846191406	-663.7436523437501	483.3569946289064	405.4938049316407	-599.7760009765626	438.9465637207032	347.5731506347656	-878.876159667969	126.5215225219727	343.3009948730468	-823.7410888671877	132.6348724365235	259.6759338378906	-928.8140258789065	109.4204940795899	272.7558898925781	-726.8322143554689	20.10497093200684	272.4122924804687	-732.9837646484376	33.65681838989259	332.2623901367187	-784.229187011719	24.94396781921387	374.2435607910156	-585.3383789062501	1619.75537109375	266.4492797851562	-623.1074829101564	1256.187866210938	282.2860717773438	-403.4107360839845	1345.649536132813	268.6659240722656	-457.3598632812502	1520.835571289063	259.3526000976562	-510.9476928710939	1542.132568359375	76.15326690673824	-581.2640380859376	1163.494995117188	-8.649953842163159	-611.6383056640626	1152.124755859375	74.64551544189447	-490.9397583007814	890.501647949219	31.75684928894038	-538.6147460937501	892.9993286132815	-37.21050262451179	-469.886444091797	778.2038574218752	26.79417228698725	-554.5829467773439	798.4959716796877	-41.77783584594734	-479.2999877929689	1535.865234375	462.0636596679688	-495.6369628906252	1176.704956054688	573.4234619140625	-545.8435668945315	1148.40576171875	490.8533020019532	-369.7155151367189	923.0194091796877	508.1599121093751	-406.4870910644533	908.5471191406252	581.3983764648439	-306.6677856445314	823.2234497070315	518.6939086914064	-404.0604553222658	809.4669189453127	575.1815185546876	
78	0.77	-396.2653198242189	1090.0322265625	154.5389862060547	-611.6893920898439	1096.032592773438	240.8618011474609	-613.4120483398439	1095.891845703125	309.2260437011719	-412.9483947753908	1081.361938476563	420.5427856445313	-451.5803833007814	968.7871093750002	87.89655303955074	-380.6656494140626	543.8840332031251	148.2913055419922	-392.4212036132814	552.0916137695314	277.98779296875	-387.2745666503907	472.1109008789064	145.4578552246093	-332.3894042968751	468.8764038085939	210.5823974609375	-329.6061096191407	65.79589843750001	198.5335388183594	-310.8762207031251	91.97349548339845	290.8596496582031	-374.1679077148439	23.53309440612793	256.7786560058594	-155.7813720703126	32.52146530151368	279.6075134277344	-158.5858001708985	40.39982223510743	219.86865234375	-199.8191986083985	22.29598426818848	177.4069061279297	-503.8268127441408	955.7398071289065	474.1566772460938	-590.5415039062501	531.0121459960939	409.9756774902344	-567.2571411132814	531.0240478515626	279.8396911621094	-646.4501342773439	484.1312561035157	408.1906433105469	-583.3327026367189	438.2596435546876	350.5124206542969	-871.635437011719	134.309310913086	346.2181396484374	-816.6812133789065	138.7939453125	262.6285705566406	-922.272399902344	120.8122634887696	275.7829284667968	-727.2695922851564	20.36029434204102	271.7339172363281	-732.5944824218751	33.48900985717774	331.6625976562499	-782.7085571289065	26.44649505615235	374.0258789062499	-574.5134277343751	1621.091064453125	265.6268310546875	-611.7086181640626	1257.521484375	281.0980224609375	-391.980194091797	1347.557861328125	267.9778747558594	-446.3670654296877	1522.515747070313	258.6926879882812	-499.6492919921876	1543.9345703125	75.39552307128902	-569.1308593750001	1165.217407226563	-9.439885139465403	-599.7621459960939	1153.90966796875	73.79499053955072	-479.244354248047	892.1326293945315	31.32560157775874	-526.6174316406251	894.6912841796877	-37.89811706542976	-458.8442687988282	779.5667724609377	26.50514411926265	-542.7858886718751	800.2714843750002	-42.64296722412116	-468.8790283203127	1537.514892578125	461.4150390625001	-485.972869873047	1178.225830078125	572.0286865234375	-535.7998657226565	1150.147338867188	489.1436157226563	-360.2937011718751	924.2185668945315	507.2992248535157	-397.5252075195314	909.766296386719	580.3007812500001	-297.6314697265626	824.1894531250002	518.0457763671876	-395.3771972656252	810.681579589844	574.0136718750001	
